<svg xmlns="http://www.w3.org/2000/svg" viewBox="0 0 400 400"><circle cx="200" cy="200" r="200" fill="#ff9500"/><circle cx="200" cy="200" r="110" fill="#fff"/><path d="M201.009 192.44h65.352c0 6.72-.281 12.826-.84 18.312-.562 5.489-1.68 10.584-3.36 15.288-2.352 6.61-5.544 12.461-9.576 17.556-4.032 5.098-8.765 9.353-14.196 12.768-5.434 3.418-11.398 6.022-17.892 7.812-6.497 1.791-13.33 2.688-20.496 2.688-9.857 0-18.845-1.625-26.964-4.872-8.122-3.247-15.094-7.812-20.916-13.692-5.825-5.88-10.361-12.936-13.608-21.168-3.25-8.232-4.872-17.33-4.872-27.3 0-9.854 1.596-18.9 4.788-27.132 3.192-8.232 7.728-15.259 13.608-21.084 5.88-5.822 12.962-10.358 21.252-13.608 8.287-3.247 17.527-4.872 27.72-4.872 13.214 0 24.806 2.856 34.776 8.568 9.967 5.712 17.863 14.561 23.688 26.544l-31.248 12.936c-2.914-6.943-6.694-11.928-11.34-14.952-4.649-3.024-9.941-4.536-15.876-4.536-4.93 0-9.408.924-13.44 2.772a29.138 29.138 0 0 0-10.332 7.896c-2.856 3.418-5.098 7.534-6.72 12.348-1.625 4.817-2.436 10.193-2.436 16.128 0 5.376.698 10.361 2.1 14.952 1.399 4.594 3.499 8.568 6.3 11.928 2.798 3.36 6.271 5.964 10.416 7.812 4.142 1.848 8.959 2.772 14.448 2.772 3.247 0 6.384-.362 9.408-1.092 3.024-.727 5.738-1.903 8.148-3.528 2.407-1.623 4.395-3.722 5.964-6.3 1.567-2.575 2.63-5.712 3.192-9.408h-27.048V192.44z"/></svg>