<svg xmlns="http://www.w3.org/2000/svg" viewBox="0 0 400 400"><circle cx="200" cy="200" r="200" fill="#00bb85"/><circle cx="200" cy="200" r="110" fill="#fff"/><path d="M239 179c-7.617-9.295-17.025-13.944-28.225-13.944-4.93 0-9.492.897-13.691 2.688-4.2 1.792-7.812 4.229-10.836 7.308-3.023 3.082-5.404 6.749-7.141 11.004-1.737 4.257-2.604 8.849-2.604 13.776 0 5.04.866 9.689 2.604 13.944 1.736 4.258 4.143 7.954 7.225 11.088 3.079 3.137 6.691 5.602 10.836 7.392 4.143 1.793 8.623 2.688 13.439 2.688 10.527 0 19.992-4.478 28.393-13.44v38.976l-3.359 1.176c-5.041 1.791-9.744 3.108-14.113 3.948-4.367.84-8.68 1.26-12.936 1.26-8.736 0-17.109-1.654-25.115-4.956-8.01-3.302-15.065-7.951-21.168-13.944-6.106-5.99-11.005-13.104-14.701-21.336-3.695-8.232-5.543-17.22-5.543-26.964s1.818-18.674 5.459-26.796c3.639-8.119 8.511-15.12 14.617-21 6.103-5.88 13.188-10.471 21.252-13.776 8.063-3.302 16.519-4.956 25.367-4.956 5.04 0 9.996.533 14.868 1.596 4.872 1.066 9.996 2.717 15.372 4.956V179z"/></svg>