<?xml version="1.0" encoding="utf-8"?>
<!-- Generator: Adobe Illustrator 21.0.0, SVG Export Plug-In . SVG Version: 6.00 Build 0)  -->
<svg version="1.1" id="レイヤー_1" xmlns="http://www.w3.org/2000/svg" xmlns:xlink="http://www.w3.org/1999/xlink" x="0px"
	 y="0px" viewBox="0 0 400 400" style="enable-background:new 0 0 400 400;" xml:space="preserve">
<g>
	<g>
		<circle style="fill:#00BB85;" cx="200" cy="200" r="200"/>
	</g>
	<g>
		<circle style="fill:#FFFFFF;" cx="200" cy="200" r="110"/>
	</g>
	<g>
		<path d="M239,179c-7.617-9.295-17.025-13.944-28.225-13.944c-4.93,0-9.492,0.897-13.691,2.688
			c-4.2,1.792-7.812,4.229-10.836,7.308c-3.023,3.082-5.404,6.749-7.141,11.004c-1.737,4.257-2.604,8.849-2.604,13.776
			c0,5.04,0.866,9.689,2.604,13.944c1.736,4.258,4.143,7.954,7.225,11.088c3.079,3.137,6.691,5.602,10.836,7.392
			c4.143,1.793,8.623,2.688,13.439,2.688c10.527,0,19.992-4.478,28.393-13.44v38.976l-3.359,1.176
			c-5.041,1.791-9.744,3.108-14.113,3.948c-4.367,0.84-8.68,1.26-12.936,1.26c-8.736,0-17.109-1.654-25.115-4.956
			c-8.01-3.302-15.065-7.951-21.168-13.944c-6.106-5.99-11.005-13.104-14.701-21.336c-3.695-8.232-5.543-17.22-5.543-26.964
			c0-9.744,1.818-18.674,5.459-26.796c3.639-8.119,8.511-15.12,14.617-21c6.103-5.88,13.188-10.471,21.252-13.776
			c8.063-3.302,16.519-4.956,25.367-4.956c5.04,0,9.996,0.533,14.868,1.596c4.872,1.066,9.996,2.717,15.372,4.956V179z"/>
	</g>
</g>
</svg>
